<svg width="12" height="18" viewBox="0 0 12 18" fill="none" xmlns="http://www.w3.org/2000/svg">
<g clipPath="url(#clip0_102_11)">
<path d="M7.82797 17.9897C7.96579 17.956 8.06891 17.8997 8.17016 17.7999C8.36704 17.6086 8.49172 17.3316 8.53672 16.9899C8.54797 16.9013 8.54985 16.3725 8.54985 13.4068V9.9277H9.89235C10.7605 9.9277 11.2573 9.92207 11.2967 9.91363C11.6173 9.8377 11.8705 9.5002 11.9689 9.01785C11.9914 8.90676 11.9933 8.8716 11.9933 8.68316C11.9933 8.49473 11.9914 8.45957 11.9689 8.34848C11.9286 8.15301 11.8639 7.97863 11.7777 7.83801C11.758 7.80566 10.8561 6.50488 9.77329 4.94817C8.69047 3.39145 7.5186 1.70535 7.16891 1.20192C6.49204 0.22879 6.44704 0.169728 6.30172 0.0853529C6.0486 -0.0608971 5.76454 -0.0144908 5.54422 0.209103C5.48422 0.269572 5.00329 0.953009 3.46672 3.16504C2.36704 4.74707 1.19047 6.4402 0.852975 6.92535C0.515475 7.41191 0.223912 7.8352 0.205162 7.86613C0.12735 8.00113 0.0692246 8.16004 0.0307871 8.34848C0.00828712 8.45957 0.00641212 8.49473 0.00641212 8.68316C0.00641212 8.8716 0.00828712 8.90676 0.0307871 9.01785C0.129225 9.5002 0.38235 9.8377 0.702975 9.91363C0.74235 9.92207 1.23922 9.9277 2.10641 9.9277H3.44985L3.45172 13.4616L3.45454 16.9941L3.48079 17.1136C3.56516 17.4933 3.74235 17.7788 3.97672 17.9152C4.1286 18.0038 4.03391 17.9996 6.00829 17.9982C6.99641 17.9968 7.81485 17.9925 7.82797 17.9897Z" fill="#FF5722"/>
</g>
<defs>
<clipPath id="clip0_102_11">
<rect width="12" height="18" fill="white" transform="matrix(-1 0 0 -1 11.9999 17.9996)"/>
</clipPath>
</defs>
</svg>
