<svg width="12" height="18" viewBox="0 0 12 18" fill="none" xmlns="http://www.w3.org/2000/svg">
<g clipPath="url(#clip0_102_8)">
<path d="M4.1719 0.00984441C4.03409 0.0435944 3.93097 0.0998444 3.82972 0.199688C3.63284 0.390938 3.50815 0.667969 3.46315 1.00969C3.4519 1.09828 3.45003 1.62703 3.45003 4.59281V8.07188H2.10753C1.2394 8.07188 0.742529 8.0775 0.703154 8.08594C0.382529 8.16188 0.129404 8.49938 0.0309668 8.98172C0.0084668 9.09281 0.0065918 9.12797 0.0065918 9.31641C0.0065918 9.50484 0.0084668 9.54 0.0309668 9.65109C0.0712793 9.84656 0.135967 10.0209 0.222217 10.1616C0.241904 10.1939 1.14378 11.4947 2.22659 13.0514C3.3094 14.6081 4.48128 16.2942 4.83097 16.7977C5.50784 17.7708 5.55284 17.8298 5.69815 17.9142C5.95128 18.0605 6.23534 18.0141 6.45565 17.7905C6.51565 17.73 6.99659 17.0466 8.53315 14.8345C9.63284 13.2525 10.8094 11.5594 11.1469 11.0742C11.4844 10.5877 11.776 10.1644 11.7947 10.1334C11.8725 9.99844 11.9307 9.83953 11.9691 9.65109C11.9916 9.54 11.9935 9.50484 11.9935 9.31641C11.9935 9.12797 11.9916 9.09281 11.9691 8.98172C11.8707 8.49938 11.6175 8.16188 11.2969 8.08594C11.2575 8.0775 10.7607 8.07188 9.89347 8.07188H8.55003L8.54815 4.53797L8.54534 1.00547L8.51909 0.885938C8.43472 0.506251 8.25753 0.220782 8.02315 0.0843757C7.87128 -0.00421809 7.96597 6.58101e-07 5.99159 0.00140691C5.00347 0.00281316 4.18503 0.00703191 4.1719 0.00984441Z" fill="#FF5722"/>
</g>
<defs>
<clipPath id="clip0_102_8">
<rect width="12" height="18" fill="white"/>
</clipPath>
</defs>
</svg>
